# xmcd
#
# Track frame offsets:
#	150
#	14545
#	27855
#	39680
#	51900
#	64517
#	77882
#	91015
#	105202
#	118915
#	146492
#	157795
#	173787
#	198545
#
# Disc length: 2951 seconds
#
# Revision: 0
# Processed by: cddbd v1.5.1PL0 Copyright (c) Steve Scherf et al.
# Submitted via: dBpowerAMP V4.0
#
DISCID=ae0b850e
DTITLE=Mixed Artists - Les Couleurs du Blues
DYEAR=1900
DGENRE=Blues
TTITLE0=Saint Louis Blues (Bessie Smtih)
TTITLE1=County Jail Blues (Big Maceo and Tampa Red)
TTITLE2=The Fat Man (Fats Domino)
TTITLE3=I Can't Be Satisfied ( Muddy Water)
TTITLE4=Sonny Boy's Jump (Sonny Boy Williamson)
TTITLE5=34 Blues (Charlie Patton)
TTITLE6=Key To The HighWay (Big Bill Broonzy)
TTITLE7=Boogie Chillen (John Lee Hooker)
TTITLE8=Call It Stormy Monday (T-Bone Walker)
TTITLE9=I Got To Find Me A Woman (Robert LockWood and BB King)
TTITLE10=Statesbord Blues (Blind Willie McTill)
TTITLE11=Blues Before SunRise (Leroy Carr)
TTITLE12=My Heart Is Mended (Charles Brown)
TTITLE13=Repay My Love (Joe Louis Walker)
EXTD=
EXTT0=
EXTT1=
EXTT2=
EXTT3=
EXTT4=
EXTT5=
EXTT6=
EXTT7=
EXTT8=
EXTT9=
EXTT10=
EXTT11=
EXTT12=
EXTT13=
PLAYORDER=
